<?xml version="1.0" encoding="UTF-8"?>
<svg xmlns="http://www.w3.org/2000/svg" viewBox="0 0 600 800">
  <style>
    /* ▼ここをシンプル化して rect も path も全部対象に */
    [data-code] {
      fill: #d6c420;       /* 黄色 */
      stroke: #333;        /* 濃い枠線 */
      stroke-width: 1;
    }
  </style>

  <!-- 北海道 -->
  <rect x="250" y="20" width="100" height="60" data-code="01"/>

  <!-- 東北 -->
  <rect x="250" y="100" width="40" height="40" data-code="02"/>
  <rect x="290" y="100" width="40" height="40" data-code="03"/>
  <rect x="250" y="140" width="40" height="40" data-code="04"/>
  <rect x="290" y="140" width="40" height="40" data-code="05"/>
  <rect x="250" y="180" width="40" height="40" data-code="06"/>
  <rect x="290" y="180" width="40" height="40" data-code="07"/>

  <!-- 関東 -->
  <rect x="250" y="240" width="40" height="40" data-code="08"/>
  <rect x="290" y="240" width="40" height="40" data-code="09"/>
  <rect x="330" y="240" width="40" height="40" data-code="10"/>
  <rect x="250" y="280" width="40" height="40" data-code="11"/>
  <rect x="290" y="280" width="40" height="40" data-code="12"/>
  <rect x="330" y="280" width="40" height="40" data-code="13"/>
  <rect x="370" y="280" width="40" height="40" data-code="14"/>

  <!-- 中部（例示） -->
  <rect x="250" y="340" width="40" height="40" data-code="15"/>
  <rect x="290" y="340" width="40" height="40" data-code="16"/>
  <rect x="330" y="340" width="40" height="40" data-code="17"/>
  <rect x="370" y="340" width="40" height="40" data-code="18"/>
  <rect x="250" y="380" width="40" height="40" data-code="19"/>
  <rect x="290" y="380" width="40" height="40" data-code="20"/>
  <rect x="330" y="380" width="40" height="40" data-code="21"/>
  <rect x="370" y="380" width="40" height="40" data-code="22"/>
  <rect x="410" y="380" width="40" height="40" data-code="23"/>
  <rect x="450" y="380" width="40" height="40" data-code="24"/>

  <!-- 近畿 -->
  <rect x="250" y="440" width="40" height="40" data-code="25"/>
  <rect x="290" y="440" width="40" height="40" data-code="26"/>
  <rect x="330" y="440" width="40" height="40" data-code="27"/>
  <rect x="370" y="440" width="40" height="40" data-code="28"/>
  <rect x="250" y="480" width="40" height="40" data-code="29"/>
  <rect x="290" y="480" width="40" height="40" data-code="30"/>

  <!-- 中国 -->
  <rect x="250" y="540" width="40" height="40" data-code="31"/>
  <rect x="290" y="540" width="40" height="40" data-code="32"/>
  <rect x="330" y="540" width="40" height="40" data-code="33"/>
  <rect x="370" y="540" width="40" height="40" data-code="34"/>
  <rect x="410" y="540" width="40" height="40" data-code="35"/>

  <!-- 四国 -->
  <rect x="250" y="600" width="40" height="40" data-code="36"/>
  <rect x="290" y="600" width="40" height="40" data-code="37"/>
  <rect x="330" y="600" width="40" height="40" data-code="38"/>
  <rect x="370" y="600" width="40" height="40" data-code="39"/>

  <!-- 九州 -->
  <rect x="250" y="660" width="40" height="40" data-code="40"/>
  <rect x="290" y="660" width="40" height="40" data-code="41"/>
  <rect x="330" y="660" width="40" height="40" data-code="42"/>
  <rect x="370" y="660" width="40" height="40" data-code="43"/>
  <rect x="410" y="660" width="40" height="40" data-code="44"/>
  <rect x="450" y="660" width="40" height="40" data-code="45"/>
  <rect x="490" y="660" width="40" height="40" data-code="46"/>

  <!-- 沖縄 -->
  <rect x="400" y="740" width="40" height="40" data-code="47"/>
</svg>
